<svg xmlns="http://www.w3.org/2000/svg" viewBox="0 0 160 160"><g stroke="#d9c58e" stroke-linecap="round" stroke-linejoin="round"><path d="M21 116q8-72 65-56l23-29 2 31 27 14-28 10q-15 44-61 47-21 2-28-17Z" fill="#35684e" stroke-width="6"/><path d="M49 132q-32 6-36-16 2-18 24-14" fill="none" stroke-width="6"/><path d="m85 59-13-29 25 20m17 34 16 12-22 4" fill="#c88e3f" stroke-width="5"/><path d="M51 87q18 10 40-2M45 106q21 13 47 0" fill="none" stroke="#e4b95b" stroke-width="4"/><path d="m63 59-11-15 21 9" fill="#a94e5a" stroke-width="4"/><circle cx="113" cy="69" r="6" fill="#ffd567" stroke="#f5e0a3" stroke-width="3"/><path d="M126 79q9-1 14 7" fill="none" stroke-width="3"/></g></svg>
