<svg xmlns="http://www.w3.org/2000/svg" viewBox="0 0 160 160"><g stroke="#3b3025" stroke-linecap="round" stroke-linejoin="round"><path d="M11 136h138" fill="none" stroke-width="6"/><path d="M18 132 31 76l25-28 24 27 24-27 25 28 13 56Z" fill="#cf5576" stroke-width="6"/><path d="M31 76q13-12 25 0 12-12 24-1 12-12 24 1 13-12 25 0" fill="#e98779" stroke-width="4"/><path d="M56 48v84M104 48v84" fill="none" stroke="#f7e5b5" stroke-width="5"/><path d="M46 132q8-35 34-50 26 15 34 50" fill="#e9ae4f" stroke-width="5"/><path d="M80 82v50" fill="none" stroke="#526f58" stroke-width="5"/><path d="M56 48V23l24 8-24 8m48 9V21l24 9-24 9" fill="#57906d" stroke-width="4"/><g fill="#f5d67d" stroke-width="2"><circle cx="39" cy="96" r="5"/><circle cx="121" cy="96" r="5"/><circle cx="66" cy="106" r="4"/><circle cx="94" cy="106" r="4"/></g><path d="M64 123q6-17 12 0m8 0q6-17 12 0" fill="none" stroke-width="4"/></g></svg>
