<svg xmlns="http://www.w3.org/2000/svg" viewBox="0 0 160 160"><g stroke="#3b3025" stroke-linecap="round" stroke-linejoin="round"><path d="M17 135h126L126 72 80 31 34 72Z" fill="#b84670" stroke-width="6"/><path d="M34 72q23-13 46 0 23-13 46 0" fill="#e97582" stroke-width="4"/><path d="M80 31v104M34 72h92" fill="none" stroke="#f7e8b7" stroke-width="5"/><path d="M55 135q8-31 25-39 17 8 25 39" fill="#f0be68" stroke-width="5"/><path d="M65 135v-18h30v18" fill="#57372f" stroke-width="4"/><path d="M80 31V13l23 7-23 8" fill="#e6a63c" stroke-width="4"/><path d="M26 70 14 57m120 13 12-13" fill="none" stroke-width="4"/><circle cx="51" cy="86" r="4" fill="#f6db83" stroke-width="2"/><circle cx="109" cy="86" r="4" fill="#f6db83" stroke-width="2"/></g></svg>
