<svg xmlns="http://www.w3.org/2000/svg" viewBox="0 0 160 160"><g stroke="#3b3025" stroke-linecap="round" stroke-linejoin="round"><path d="M12 137V63q68-55 136 0v74" fill="#a95781" stroke-width="6"/><path d="M29 137V75q51-45 102 0v62" fill="#e7b25c" stroke-width="5"/><path d="M41 137V85q39-35 78 0v52" fill="#f0d18b" stroke-width="4"/><g fill="#58765d" stroke-width="4"><circle cx="58" cy="99" r="8"/><circle cx="80" cy="88" r="8"/><circle cx="102" cy="99" r="8"/></g><path d="M47 136q11-31 22 0m0 0q11-38 22 0m0 0q11-31 22 0" fill="#d45c72" stroke-width="5"/><path d="M52 73q8-13 17 0V49l19-5v23q8-9 16 2" fill="none" stroke-width="5"/><path d="M12 137h136" fill="none" stroke-width="7"/><g fill="#f5d177" stroke-width="2"><circle cx="25" cy="73" r="4"/><circle cx="135" cy="73" r="4"/></g></g></svg>
