<svg xmlns="http://www.w3.org/2000/svg" viewBox="0 0 160 160"><g stroke="#382d27" stroke-linecap="round" stroke-linejoin="round"><path d="M15 140h130V68L80 22 15 68Z" fill="#d69a54" stroke-width="6"/><path d="M31 140V75h98v65M15 68h130" fill="none" stroke="#f3e0aa" stroke-width="5"/><path d="M42 138V91m76 47V91" fill="none" stroke-width="5"/><path d="M37 66q22-13 43 0 22-13 43 0" fill="#b84d73" stroke-width="4"/><g fill="#b84d73" stroke-width="3"><circle cx="63" cy="93" r="7"/><circle cx="99" cy="90" r="7"/></g><path d="M63 101q-11 14-2 31m38-34q-9 15 3 31M63 106l20 13m16-21-17 15" fill="none" stroke="#405d55" stroke-width="6"/><path d="M80 22V9l20 6-20 7" fill="#e6ab3e" stroke-width="4"/></g></svg>
