<svg xmlns="http://www.w3.org/2000/svg" viewBox="0 0 160 160"><g stroke="#ead3a0" stroke-linecap="round" stroke-linejoin="round"><path d="M15 140h130V68L80 22 15 68Z" fill="#674936" stroke-width="6"/><path d="M31 140V75h98v65M15 68h130" fill="none" stroke="#c6a267" stroke-width="5"/><path d="M42 138V91m76 47V91" fill="none" stroke-width="5"/><path d="M37 66q22-13 43 0 22-13 43 0" fill="#a8466d" stroke-width="4"/><g fill="#f7bd55" stroke-width="3"><circle cx="63" cy="93" r="7"/><circle cx="99" cy="90" r="7"/></g><path d="M63 101q-11 14-2 31m38-34q-9 15 3 31M63 106l20 13m16-21-17 15" fill="none" stroke="#73a68a" stroke-width="6"/><path d="M80 22V9l20 6-20 7" fill="#f4bd54" stroke-width="4"/></g></svg>
