<svg xmlns="http://www.w3.org/2000/svg" viewBox="0 0 160 160"><g stroke="#3b3025" stroke-linecap="round" stroke-linejoin="round"><path d="M10 70 80 19l70 51" fill="#cf5570" stroke-width="6"/><path d="M22 67h116v67H22Z" fill="#e7bb70" stroke-width="6"/><path d="M36 134V82m88 52V82M27 82h106" fill="none" stroke="#f6e4b3" stroke-width="5"/><path d="M63 134V94h34v40" fill="#55755e" stroke-width="5"/><path d="M45 113q12-18 24 1m-19-12v29m18-15v18" fill="none" stroke-width="4"/><path d="M105 104q13-12 20 2m-17-8v32m15-22v22" fill="none" stroke-width="4"/><path d="M29 139h105" fill="none" stroke-width="9"/><path d="M36 76q11 8 22 0 11 8 22 0 11 8 22 0 11 8 22 0" fill="none" stroke="#b74f72" stroke-width="4"/><g fill="#f3d16f" stroke-width="2"><circle cx="47" cy="75" r="4"/><circle cx="80" cy="75" r="4"/><circle cx="113" cy="75" r="4"/></g></g></svg>
