<svg xmlns="http://www.w3.org/2000/svg" viewBox="0 0 160 160"><g fill="none" stroke-linecap="round" stroke-linejoin="round"><path d="M16 82q32-17 64 0 32-17 64 0M12 105q34-17 68 0 34-17 68 0M24 129q28-15 56 0 28-15 56 0" stroke="#6eb1bd" stroke-width="7"/><path d="M31 83V38m17 39V28m78 54V31m-18 47V42M24 51l7-13 7 13m3-9 7-14 7 14m64 3 7-14 7 14m-32 8 7-11 7 11" stroke="#80976b" stroke-width="5"/><path d="M80 58V32m-8 9h16l-3 18H75Z" fill="#ffc45c" stroke="#f0dda5" stroke-width="4"/><path d="M65 88q15 10 30 0m-23 19q8 6 16 0m-11 15q3 2 6 0" stroke="#f6c66d" stroke-width="4"/></g></svg>
