<svg xmlns="http://www.w3.org/2000/svg" viewBox="0 0 160 160"><g stroke="#edd3a0" stroke-linecap="round" stroke-linejoin="round"><path d="M13 138V44q67-48 134 0v94" fill="#6d3156" stroke-width="6"/><path d="M28 138V54q52-37 104 0v84" fill="#a45a48" stroke-width="5"/><path d="M38 67q42-30 84 0v71H38Z" fill="#2a2630" stroke-width="4"/><path d="M50 119h60" fill="none" stroke-width="6"/><path d="M58 114 65 58q15-11 31 0l7 56" fill="#141923" stroke-width="6"/><path d="M61 94h39" fill="none" stroke="#f0b85a" stroke-width="5"/><path d="m111 128 20-65" fill="none" stroke-width="6"/><path d="m126 62 10 3" fill="none" stroke-width="5"/><g fill="#ffd679" stroke-width="2"><circle cx="28" cy="50" r="6"/><circle cx="132" cy="50" r="6"/><circle cx="51" cy="77" r="4"/><circle cx="109" cy="77" r="4"/></g><path d="M16 138h128" fill="none" stroke-width="7"/></g></svg>
