<svg xmlns="http://www.w3.org/2000/svg" viewBox="0 0 160 160"><g stroke="#3b3025" stroke-linecap="round" stroke-linejoin="round"><circle cx="80" cy="44" r="22" fill="#f0aa3f" stroke-width="6"/><g fill="none" stroke="#c4516a" stroke-width="5"><path d="M80 9v12M80 67v12M45 44h12m46 0h12M55 19l9 9m32 32 9 9m0-50-9 9M64 60l-9 9"/></g><path d="m16 139 13-49h101l14 49Z" fill="#568c82" stroke-width="6"/><path d="M29 90l22 49m2-49 18 49m8-49 2 49m22-49-14 49m37-49-17 49M23 113h114" fill="none" stroke="#f3e2b0" stroke-width="4"/><path d="M19 139h126" fill="none" stroke-width="7"/><path d="M126 79V45m0 0-11-15m11 15 17-8m-17 8 1 21" fill="none" stroke="#4c765d" stroke-width="4"/></g></svg>
