<svg xmlns="http://www.w3.org/2000/svg" viewBox="0 0 160 160"><g stroke="#edd3a0" stroke-linecap="round" stroke-linejoin="round"><circle cx="80" cy="44" r="22" fill="#f0a94a" stroke-width="6"/><path d="M88 22q-20 12-8 44 18-7 20-26" fill="#44334f" stroke="none"/><g fill="none" stroke="#db7291" stroke-width="5"><path d="M80 9v12M45 44h12m46 0h12M55 19l9 9m41-9-9 9M64 60l-9 9"/></g><path d="m16 139 13-49h101l14 49Z" fill="#315f63" stroke-width="6"/><path d="M29 90l22 49m2-49 18 49m8-49 2 49m22-49-14 49m37-49-17 49M23 113h114" fill="none" stroke="#d5bc7c" stroke-width="4"/><path d="M19 139h126" fill="none" stroke-width="7"/><path d="M126 79V45m0 0-11-15m11 15 17-8m-17 8 1 21" fill="none" stroke="#81af83" stroke-width="4"/><g fill="#ffd77a" stroke-width="2"><circle cx="31" cy="123" r="4"/><circle cx="80" cy="123" r="4"/><circle cx="129" cy="123" r="4"/></g></g></svg>
