<svg xmlns="http://www.w3.org/2000/svg" viewBox="0 0 160 160"><g stroke="#edd3a0" stroke-linecap="round" stroke-linejoin="round"><path d="M19 119h112V68q-8-47-56-47T19 68Z" fill="#665041" stroke-width="6"/><path d="M20 69h110M75 22v97" fill="none" stroke="#e17597" stroke-width="5"/><path d="M26 67q14-30 49-46 35 16 49 46" fill="none" stroke="#7fb18d" stroke-width="5"/><path d="M32 84h28v25H32Zm57 0h27v25H89Z" fill="#f0a94c" stroke-width="4"/><path d="M38 88h16m41 0h15" fill="none" stroke="#ffd97c" stroke-width="3"/><circle cx="44" cy="126" r="16" fill="#623b37" stroke-width="6"/><circle cx="105" cy="126" r="16" fill="#623b37" stroke-width="6"/><path d="M44 110v32m-16-16h32m45-16v32m-16-16h32M131 101l18 12" fill="none" stroke-width="4"/><path d="M61 47q14 12 28 0" fill="none" stroke="#f0b45c" stroke-width="4"/><g fill="#ffd679" stroke-width="2"><circle cx="24" cy="74" r="5"/><circle cx="126" cy="74" r="5"/></g></g></svg>
