<svg xmlns="http://www.w3.org/2000/svg" viewBox="0 0 160 160"><g stroke="#343044" stroke-linejoin="round" stroke-linecap="round"><path d="M93 16a53 53 0 1 0 38 88A45 45 0 1 1 93 16Z" fill="#c7d9da" stroke-width="6"/><path d="M34 123q46-25 92 0v19H34Z" fill="#5d6b87" stroke-width="5"/><path d="M45 122V91m70 31V91M45 99q35 15 70 0" fill="none" stroke-width="4"/><path d="m118 25 4 10 10 4-10 4-4 10-4-10-10-4 10-4Z" fill="#efbb51" stroke-width="3"/><g fill="#eabf62" stroke-width="2"><circle cx="57" cy="102" r="4"/><circle cx="80" cy="106" r="4"/><circle cx="103" cy="102" r="4"/></g></g></svg>
